<?xml version="1.0" encoding="UTF-8"?>
<svg width="26px" height="25px" viewBox="0 0 26 25" version="1.1" xmlns="http://www.w3.org/2000/svg" xmlns:xlink="http://www.w3.org/1999/xlink">
    <!-- Generator: Sketch 60 (88103) - https://sketch.com -->
    <title>Instagram-black</title>
    <desc>Created with Sketch.</desc>
    <g id="Final---Approved" stroke="none" stroke-width="1" fill="none" fill-rule="evenodd">
        <g id="Homepage-Final-Design" transform="translate(-1101.000000, -1068.000000)" fill="#FFFFFF">
            <g id="Footer" transform="translate(0.000000, 1060.000000)">
                <g id="Social-Media-Icons" transform="translate(1063.000000, 8.000000)">
                    <path d="M52.4986716,0.000922008839 C54.4267194,0.00638264595 54.9116934,0.0252371179 55.9869508,0.0742979875 C57.3174912,0.134984602 58.2262026,0.346320901 59.0213312,0.655361161 C59.8433545,0.974772233 60.5404814,1.40220846 61.2354747,2.09715207 C61.9304183,2.79214531 62.3578545,3.48927225 62.6773152,4.31129553 C62.9863058,5.10642416 63.1976421,6.01513551 63.2583288,7.3456759 C63.3152394,8.59297448 63.3315042,9.04598777 63.3333661,11.8786155 L63.3333661,13.1207186 C63.3315042,15.9533056 63.3152394,16.4063189 63.2583288,17.6536175 C63.1976421,18.9841579 62.9863058,19.8928692 62.6773152,20.6879979 C62.3578545,21.5100212 61.9304183,22.2071481 61.2354747,22.9021413 C60.5404814,23.5970849 59.8433545,24.0245212 59.0213312,24.3439819 C58.2262026,24.6529725 57.3174912,24.8643088 55.9869508,24.9249954 C54.7396523,24.981906 54.286639,24.9981709 51.4540519,25.0000327 L50.2119488,25.0000327 C47.3793211,24.9981709 46.9263078,24.981906 45.6790092,24.9249954 C44.3484688,24.8643088 43.4397575,24.6529725 42.6446289,24.3439819 C41.8226056,24.0245212 41.1254786,23.5970849 40.4304854,22.9021413 C39.7355418,22.2071481 39.3081056,21.5100212 38.9886945,20.6879979 C38.6796542,19.8928692 38.4683179,18.9841579 38.4076313,17.6536175 C38.3585705,16.5783601 38.339716,16.0933861 38.3342553,14.1653382 L38.3342553,10.8339812 C38.339716,8.90590733 38.3585705,8.42093329 38.4076313,7.3456759 C38.4683179,6.01513551 38.6796542,5.10642416 38.9886945,4.31129553 C39.3081056,3.48927225 39.7355418,2.79214531 40.4304854,2.09715207 C41.1254786,1.40220846 41.8226056,0.974772233 42.6446289,0.655361161 C43.4397575,0.346320901 44.3484688,0.134984602 45.6790092,0.0742979875 C46.7542666,0.0252371179 47.2392407,0.00638264595 49.1673145,0.000922008839 Z M51.7499276,2.25184131 L49.9160686,2.25184131 C47.4068877,2.2544485 46.9679969,2.2701908 45.7816753,2.3243175 C44.5628817,2.37989315 43.9009857,2.58353817 43.4604991,2.75473099 C42.8770045,2.98149946 42.4605842,3.25238109 42.0231741,3.68984077 C41.5857144,4.12725084 41.3148328,4.54367118 41.0880643,5.12716578 C40.9168715,5.56765236 40.7132265,6.22954832 40.6576508,7.44834197 C40.6035241,8.63466357 40.5877818,9.07355433 40.5851746,11.5827353 L40.5851746,13.4165943 C40.5877818,15.9257391 40.6035241,16.3646298 40.6576508,17.5509514 C40.7132265,18.7697451 40.9168715,19.431641 41.0880643,19.8721276 C41.3148328,20.4556222 41.585764,20.8720426 42.0231741,21.3094526 C42.4605842,21.7469123 42.8770045,22.0177939 43.4604991,22.2445624 C43.9009857,22.4157552 44.5628817,22.6194003 45.7816753,22.6749759 C46.9239301,22.7270979 47.3731312,22.7436262 49.6455659,22.7471071 L52.0204288,22.7471071 C54.2928403,22.7436262 54.742073,22.7270979 55.8842848,22.6749759 C57.1030784,22.6194003 57.7649744,22.4157552 58.205461,22.2445624 C58.7889556,22.0177939 59.2053759,21.7469123 59.642786,21.3094526 C60.0802457,20.8720426 60.3511273,20.4556222 60.5778957,19.8721276 C60.7490886,19.431641 60.9527336,18.7697451 61.0083092,17.5509514 C61.0604312,16.4085677 61.0769595,15.9592748 61.0804404,13.6870118 L61.0804404,11.3123139 C61.0769595,9.04001862 61.0604312,8.59072573 61.0083092,7.44834197 C60.9527336,6.22954832 60.7490886,5.56765236 60.5778957,5.12716578 C60.3511273,4.54367118 60.0802457,4.12725084 59.642786,3.68984077 C59.2053759,3.25238109 58.7889556,2.98149946 58.205461,2.75473099 C57.7649744,2.58353817 57.1030784,2.37989315 55.8842848,2.3243175 C54.6979632,2.2701908 54.2590724,2.2544485 51.7499276,2.25184131 Z M50.8330048,6.08043689 C54.3782345,6.08043689 57.2521898,8.95439222 57.2521898,12.4996715 C57.2521898,16.0449012 54.3782345,18.9188565 50.8330048,18.9188565 C47.2877255,18.9188565 44.4137702,16.0449012 44.4137702,12.4996715 C44.4137702,8.95439222 47.2877255,6.08043689 50.8330048,6.08043689 Z M50.8330048,8.3327886 C48.5316771,8.3327886 46.6661219,10.1983438 46.6661219,12.4996715 C46.6661219,14.8009496 48.5316771,16.6665048 50.8330048,16.6665048 C53.134283,16.6665048 54.9998381,14.8009496 54.9998381,12.4996715 C54.9998381,10.1983438 53.134283,8.3327886 50.8330048,8.3327886 Z M57.5058033,4.32672769 C58.3342774,4.32672769 59.005899,4.99834939 59.005899,5.82682341 C59.005899,6.65529742 58.3342774,7.3268695 57.5058033,7.3268695 C56.6773789,7.3268695 56.0057572,6.65529742 56.0057572,5.82682341 C56.0057572,4.99834939 56.6773789,4.32672769 57.5058033,4.32672769 Z" id="Instagram"></path>
                </g>
            </g>
        </g>
    </g>
</svg>