<?xml version="1.0" encoding="UTF-8"?>
<svg width="26px" height="25px" viewBox="0 0 26 25" version="1.1" xmlns="http://www.w3.org/2000/svg" xmlns:xlink="http://www.w3.org/1999/xlink">
    <!-- Generator: Sketch 60 (88103) - https://sketch.com -->
    <title>snapchat</title>
    <desc>Created with Sketch.</desc>
    <g id="Final---Approved" stroke="none" stroke-width="1" fill="none" fill-rule="evenodd">
        <g id="Homepage-Final-Design" transform="translate(-1063.000000, -1068.000000)" fill="#FFFFFF" fill-rule="nonzero">
            <g id="Footer" transform="translate(0.000000, 1060.000000)">
                <g id="Social-Media-Icons" transform="translate(1063.000000, 8.000000)">
                    <g id="snapchat">
                        <path d="M25.3257487,18.6808732 C21.8721549,18.0954262 20.3156966,14.4513514 20.2527279,14.2966736 C20.2478841,14.2866944 20.2446549,14.2767152 20.2381966,14.266736 C20.062207,13.8975052 20.0202279,13.5931393 20.1171029,13.3619543 C20.3060091,12.906237 21.0293424,12.6700624 21.5072591,12.5137214 C21.6461133,12.468815 21.7768945,12.4255717 21.8850716,12.3823285 C22.3565299,12.1910603 22.6923633,11.9831601 22.9151758,11.7486486 C23.1799674,11.4675676 23.2316341,11.1981289 23.2284049,11.0234927 C23.220332,10.5977131 22.9038737,10.2185031 22.3985091,10.0338877 C22.2289779,9.96237006 22.0336133,9.92411642 21.8366341,9.92411642 C21.7026237,9.92411642 21.5024154,9.94241164 21.3135091,10.0338877 C20.9098633,10.2284823 20.5481966,10.3349272 20.236582,10.349896 C20.0718945,10.34158 19.9556445,10.3049896 19.8797591,10.2700624 C19.8894466,10.1037422 19.8991341,9.93243243 19.9104362,9.75613306 L19.9152799,9.67962578 C20.0266862,7.87837838 20.1639258,5.63804574 19.5859049,4.30748441 C19.190332,3.3960499 18.6591341,2.61268191 18.0052279,1.97733888 C17.4578841,1.44511435 16.8217383,1.01268191 16.1145508,0.693347193 C14.8858529,0.134511435 13.7394987,0.0513513514 13.164707,0.0513513514 L13.1630924,0.0513513514 C13.1404883,0.0513513514 13.1194987,0.0513513514 13.1001237,0.0513513514 C12.9402799,0.053014553 12.680332,0.0563409563 12.6561133,0.0563409563 C12.0829362,0.0563409563 10.9349674,0.13950104 9.70304036,0.698336798 C8.99746745,1.01767152 8.36455078,1.44844075 7.81882161,1.98066528 C7.16814453,2.61600832 6.6385612,3.3977131 6.24460286,4.30582121 C5.66658203,5.63471933 5.80382161,7.87505198 5.91361328,9.67463617 L5.91361328,9.67796258 C5.92491536,9.87089397 5.93783203,10.0721414 5.94913411,10.2683992 C5.86517578,10.3066528 5.7279362,10.349896 5.52611328,10.349896 C5.19996745,10.349896 4.81246745,10.2434511 4.37491536,10.0322245 C4.2457487,9.97068607 4.09882161,9.93908524 3.93736328,9.93908524 C3.67741536,9.93908524 3.40132161,10.0172557 3.16397786,10.1619543 C2.86366536,10.3432432 2.66991536,10.5977131 2.61663411,10.8821206 C2.58272786,11.0683992 2.58434245,11.4392931 2.98475911,11.8151767 C3.20595703,12.0214137 3.5288737,12.2126819 3.94705078,12.3823285 C4.05684245,12.4272349 4.1876237,12.468815 4.32486328,12.5137214 C4.80277995,12.6700624 5.52772786,12.906237 5.71663411,13.3619543 C5.81189453,13.5931393 5.76991536,13.8975052 5.59392578,14.266736 C5.58908203,14.2767152 5.58423828,14.2866944 5.58100911,14.2966736 C5.53580078,14.4031185 5.12408203,15.3594595 4.27965495,16.3690229 C3.8001237,16.9428274 3.27215495,17.4234927 2.71027995,17.7960499 C2.02408203,18.2517672 1.28298828,18.547817 0.506373698,18.67921 C0.201217448,18.7307692 -0.0167513021,19.0101871 0.00100911458,19.3278586 C0.00585286458,19.4193347 0.0268424479,19.5108108 0.0639778646,19.5989605 L0.0639778646,19.6006237 C0.188300781,19.8983368 0.474082031,20.1494802 0.939082031,20.3706861 C1.50741536,20.6417879 2.3566862,20.8696466 3.46590495,21.0476091 C3.52241536,21.1573805 3.58054036,21.4318087 3.62090495,21.6197505 C3.66288411,21.8193347 3.70647786,22.0255717 3.76944661,22.2434511 C3.83725911,22.4796258 4.01163411,22.7623701 4.46210286,22.7623701 C4.6332487,22.7623701 4.82861328,22.7224532 5.05626953,22.6775468 C5.3888737,22.6110187 5.8441862,22.5195426 6.41090495,22.5195426 C6.7257487,22.5195426 7.05189453,22.547817 7.37965495,22.6043659 C8.01257161,22.712474 8.55830078,23.108316 9.18960286,23.5673597 C10.1131445,24.2392931 11.1593945,24.9993763 12.757832,24.9993763 C12.8014258,24.9993763 12.8450195,24.9977131 12.8886133,24.9943867 C12.9402799,24.9977131 13.0064779,24.9993763 13.0742904,24.9993763 C14.6727279,24.9993763 15.7189779,24.2392931 16.6425195,23.5690229 L16.6441341,23.5673597 C17.2754362,23.1099792 17.8211654,22.7141372 18.454082,22.6060291 C18.7818424,22.5494802 19.1079883,22.5212058 19.422832,22.5212058 C19.965332,22.5212058 20.3948112,22.5927235 20.7774674,22.6692308 C21.0277279,22.7191268 21.2214779,22.7440748 21.3716341,22.7440748 L21.3861654,22.7440748 L21.4006966,22.7440748 C21.7300716,22.7440748 21.9722591,22.5577963 22.0642904,22.2334719 C22.1256445,22.0189189 22.1692383,21.8193347 22.212832,21.6147609 C22.2499674,21.4384615 22.3113216,21.1557173 22.3662174,21.0459459 C23.4754362,20.8663202 24.324707,20.6401247 24.8930404,20.3690229 C25.3564258,20.147817 25.642207,19.8966736 25.7665299,19.6006237 C25.8036654,19.512474 25.8262695,19.4209979 25.8311133,19.3261954 C25.8488737,19.0118503 25.6309049,18.7307692 25.3257487,18.6808732 Z" id="Path"></path>
                    </g>
                </g>
            </g>
        </g>
    </g>
</svg>