<?xml version="1.0" encoding="UTF-8"?>
<svg width="31px" height="25px" viewBox="0 0 31 25" version="1.1" xmlns="http://www.w3.org/2000/svg" xmlns:xlink="http://www.w3.org/1999/xlink">
    <!-- Generator: Sketch 60 (88103) - https://sketch.com -->
    <title>Twitter-black</title>
    <desc>Created with Sketch.</desc>
    <g id="Final---Approved" stroke="none" stroke-width="1" fill="none" fill-rule="evenodd">
        <g id="Homepage-Final-Design" transform="translate(-1138.000000, -1068.000000)" fill="#FFFFFF">
            <g id="Footer" transform="translate(0.000000, 1060.000000)">
                <g id="Social-Media-Icons" transform="translate(1063.000000, 8.000000)">
                    <path d="M102.29926,3.9526905 C103.570611,3.1726255 104.546135,1.93571687 105.005723,0.462260744 C103.815372,1.18454316 102.5,1.71000361 101.094823,1.99169375 C99.9749076,0.765619357 98.3742736,0 96.602835,0 C93.2061102,0 90.4503434,2.82592994 90.4503434,6.31094258 C90.4503434,6.80570603 90.5031696,7.28602384 90.608822,7.74828458 C85.4934848,7.4846515 80.9592358,4.97472012 77.9217292,1.15204045 C77.3917063,2.08739617 77.0888361,3.1726255 77.0888361,4.32827736 C77.0888361,6.51679307 78.1752949,8.44889852 79.8269942,9.5810762 C78.8197746,9.5503792 77.868903,9.26327194 77.0377707,8.79378837 L77.0377707,8.87143373 C77.0377707,11.9302997 79.1596232,14.4817624 81.9770206,15.0595883 C81.4610847,15.2076562 80.9169748,15.2816901 80.3552562,15.2816901 C79.9590597,15.2816901 79.5716675,15.2437703 79.1966015,15.1697364 C79.9801902,17.6760563 82.2517169,19.5016251 84.9458531,19.5503792 C82.8398486,21.2441315 80.1844515,22.2535211 77.3019017,22.2535211 C76.8053354,22.2535211 76.3140518,22.2246298 75.8333333,22.1668472 C78.5574045,23.9544962 81.7938898,25 85.268093,25 C96.5905089,25 102.779979,15.3846154 102.779979,7.04405923 C102.779979,6.76959191 102.774696,6.49512459 102.764131,6.2260744 C103.966808,5.33586132 105.011005,4.22535211 105.833333,2.95955218 C104.731027,3.46153846 103.544198,3.8010112 102.29926,3.9526905 Z" id="Twitter"></path>
                </g>
            </g>
        </g>
    </g>
</svg>