<?xml version="1.0" encoding="UTF-8"?>
<svg width="26px" height="25px" viewBox="0 0 26 25" version="1.1" xmlns="http://www.w3.org/2000/svg" xmlns:xlink="http://www.w3.org/1999/xlink">
    <!-- Generator: Sketch 60 (88103) - https://sketch.com -->
    <title>Whatsapp-black</title>
    <desc>Created with Sketch.</desc>
    <g id="Final---Approved" stroke="none" stroke-width="1" fill="none" fill-rule="evenodd">
        <g id="Homepage-Final-Design" transform="translate(-1225.000000, -1068.000000)" fill="#FFFFFF">
            <g id="Footer" transform="translate(0.000000, 1060.000000)">
                <g id="Social-Media-Icons" transform="translate(1063.000000, 8.000000)">
                    <path d="M175.003628,0.000207394872 C181.894661,0.000207394872 187.5,5.60712775 187.5,12.5001037 C187.5,19.3928723 181.894661,25 175.003628,25 C172.461684,25 170.10344,24.2432161 168.127317,22.9351767 L168.127317,22.9351767 L163.322711,24.4707283 L164.880222,19.8265349 C163.381594,17.768763 162.5,15.2335681 162.5,12.4998963 C162.5,5.60692035 168.105339,-7.10542736e-15 174.996372,-7.10542736e-15 L174.996372,0.000207394872 Z M170.294604,5.71746182 C169.816901,5.71746182 169.317428,5.85703857 169.016168,6.16564214 C168.648975,6.54040467 167.737939,7.41478145 167.737939,9.20791751 C167.737939,11.0010536 169.04561,12.7352895 169.221846,12.9779415 C169.405546,13.2201787 171.771254,16.9532864 175.444426,18.4747352 C178.316864,19.6651817 179.169224,19.5548476 179.822955,19.4152709 C180.777947,19.2095352 181.975522,18.5037704 182.276782,17.6515849 C182.578041,16.7989846 182.578041,16.0714434 182.489716,15.9171416 C182.401598,15.7628398 182.159015,15.6749044 181.791822,15.4909451 C181.424629,15.3071933 179.639255,14.4253503 179.301297,14.3077574 C178.970596,14.1829057 178.654822,14.2270808 178.405189,14.5798595 C178.05251,15.0722149 177.707295,15.5720365 177.428013,15.8731739 C177.207614,16.1083597 176.847471,16.1378097 176.546418,16.0127506 C176.14232,15.8439312 175.011092,15.44677 173.615097,14.2048895 C172.535081,13.2423699 171.800488,12.0446646 171.587554,11.6846271 C171.374412,11.3173307 171.565576,11.1039214 171.734348,10.9056519 C171.918048,10.677725 172.094284,10.5161644 172.277984,10.3029624 C172.461684,10.0899679 172.564523,9.97963382 172.682083,9.729723 C172.807107,9.4872784 172.718781,9.23736758 172.630663,9.05361572 C172.542545,8.86986387 171.807953,7.07672781 171.506693,6.34939399 C171.264317,5.76889575 171.080617,5.74691189 170.713424,5.73197946 C170.5884,5.72472064 170.44907,5.71746182 170.294604,5.71746182 Z" id="Whatsapp"></path>
                </g>
            </g>
        </g>
    </g>
</svg>