<?xml version="1.0" encoding="UTF-8"?>
<svg width="32px" height="24px" viewBox="0 0 32 24" version="1.1" xmlns="http://www.w3.org/2000/svg" xmlns:xlink="http://www.w3.org/1999/xlink">
    <!-- Generator: Sketch 60 (88103) - https://sketch.com -->
    <title>Youtube-black</title>
    <desc>Created with Sketch.</desc>
    <g id="Final---Approved" stroke="none" stroke-width="1" fill="none" fill-rule="evenodd">
        <g id="Homepage-Final-Design" transform="translate(-1181.000000, -1069.000000)" fill="#FFFFFF">
            <g id="Footer" transform="translate(0.000000, 1060.000000)">
                <g id="Social-Media-Icons" transform="translate(1063.000000, 8.000000)">
                    <path d="M130.897083,17.0183474 L130.896094,8.05788508 L139.452031,12.5535636 L130.897083,17.0183474 Z M149.683333,6.50517678 C149.683333,6.50517678 149.373594,4.30766601 148.424583,3.33996399 C147.22026,2.06929449 145.870469,2.06331487 145.251979,1.98956621 C140.820625,1.66666667 134.173594,1.66666667 134.173594,1.66666667 L134.15974,1.66666667 C134.15974,1.66666667 127.512708,1.66666667 123.081354,1.98956621 C122.461875,2.06331487 121.113073,2.06929449 119.90776,3.33996399 C118.95875,4.30766601 118.65,6.50517678 118.65,6.50517678 C118.65,6.50517678 118.333333,9.08637992 118.333333,11.6665864 L118.333333,14.0863398 C118.333333,16.6675429 118.65,19.2477495 118.65,19.2477495 C118.65,19.2477495 118.95875,21.4452602 119.90776,22.4129623 C121.113073,23.6836318 122.695417,23.6437676 123.4,23.7763159 C125.933333,24.0214804 134.166667,24.0972222 134.166667,24.0972222 C134.166667,24.0972222 140.820625,24.0872562 145.251979,23.7643566 C145.870469,23.6896114 147.22026,23.6836318 148.424583,22.4129623 C149.373594,21.4452602 149.683333,19.2477495 149.683333,19.2477495 C149.683333,19.2477495 150,16.6675429 150,14.0863398 L150,11.6665864 C150,9.08637992 149.683333,6.50517678 149.683333,6.50517678 L149.683333,6.50517678 Z" id="Youtube"></path>
                </g>
            </g>
        </g>
    </g>
</svg>