<?xml version="1.0" encoding="UTF-8"?>
<svg width="50px" height="50px" viewBox="0 0 50 50" version="1.1" xmlns="http://www.w3.org/2000/svg" xmlns:xlink="http://www.w3.org/1999/xlink">
    <!-- Generator: Sketch 60.1 (88133) - https://sketch.com -->
    <title>aboutus</title>
    <desc>Created with Sketch.</desc>
    <g id="aboutus" stroke="none" stroke-width="1" fill="none" fill-rule="evenodd">
        <g id="info-circle" transform="translate(10.000000, 10.000000)" fill="#2196f3" fill-rule="nonzero">
            <path d="M15,0 C6.71631048,0 0,6.71872984 0,15 C0,23.2861089 6.71631048,30 15,30 C23.2836895,30 30,23.2861089 30,15 C30,6.71872984 23.2836895,0 15,0 Z M15,6.65322581 C16.4029839,6.65322581 17.5403226,7.79056452 17.5403226,9.19354839 C17.5403226,10.5965323 16.4029839,11.733871 15,11.733871 C13.5970161,11.733871 12.4596774,10.5965323 12.4596774,9.19354839 C12.4596774,7.79056452 13.5970161,6.65322581 15,6.65322581 Z M18.3870968,22.016129 C18.3870968,22.4169556 18.0621169,22.7419355 17.6612903,22.7419355 L12.3387097,22.7419355 C11.9378831,22.7419355 11.6129032,22.4169556 11.6129032,22.016129 L11.6129032,20.5645161 C11.6129032,20.1636895 11.9378831,19.8387097 12.3387097,19.8387097 L13.0645161,19.8387097 L13.0645161,15.9677419 L12.3387097,15.9677419 C11.9378831,15.9677419 11.6129032,15.6427621 11.6129032,15.2419355 L11.6129032,13.7903226 C11.6129032,13.389496 11.9378831,13.0645161 12.3387097,13.0645161 L16.2096774,13.0645161 C16.610504,13.0645161 16.9354839,13.389496 16.9354839,13.7903226 L16.9354839,19.8387097 L17.6612903,19.8387097 C18.0621169,19.8387097 18.3870968,20.1636895 18.3870968,20.5645161 L18.3870968,22.016129 Z" id="Shape"></path>
        </g>
    </g>
</svg>