<?xml version="1.0" encoding="UTF-8"?>
<svg width="50px" height="50px" viewBox="0 0 50 50" version="1.1" xmlns="http://www.w3.org/2000/svg" xmlns:xlink="http://www.w3.org/1999/xlink">
    <!-- Generator: Sketch 60.1 (88133) - https://sketch.com -->
    <title>admissions</title>
    <desc>Created with Sketch.</desc>
    <g id="admissions" stroke="none" stroke-width="1" fill="none" fill-rule="evenodd">
        <g id="eservices" transform="translate(6.000000, 10.000000)" fill="#2196f3" fill-rule="nonzero">
            <g id="desktop">
                <path d="M34.8333333,0 L3.16666667,0 C1.41840278,0 0,1.25976562 0,2.8125 L0,21.5625 C0,23.1152344 1.41840278,24.375 3.16666667,24.375 L15.8333333,24.375 L14.7777778,27.1875 L10.0277778,27.1875 C9.15034722,27.1875 8.44444444,27.8144531 8.44444444,28.59375 C8.44444444,29.3730469 9.15034722,30 10.0277778,30 L27.9722222,30 C28.8496528,30 29.5555556,29.3730469 29.5555556,28.59375 C29.5555556,27.8144531 28.8496528,27.1875 27.9722222,27.1875 L23.2222222,27.1875 L22.1666667,24.375 L34.8333333,24.375 C36.5815972,24.375 38,23.1152344 38,21.5625 L38,2.8125 C38,1.25976562 36.5815972,0 34.8333333,0 Z M33.7777778,20.625 L4.22222222,20.625 L4.22222222,3.75 L33.7777778,3.75 L33.7777778,20.625 Z" id="Shape"></path>
            </g>
            <g id="cogs" transform="translate(12.461538, 7.058824)">
                <path d="M10.5045311,3.95763785 L10.3366551,4.25394267 C10.2752371,4.36376194 10.144212,4.4093473 10.0275177,4.365834 C9.78594009,4.27466329 9.56483516,4.1441234 9.37034472,3.98043053 C9.2761704,3.90169218 9.25160319,3.76286405 9.31302123,3.65511684 L9.48089719,3.35881202 C9.33963571,3.19304708 9.22908325,3.00034534 9.1553816,2.79106711 L8.81758242,2.79106711 C8.69474635,2.79106711 8.58828842,2.70196846 8.56781575,2.57764476 C8.52687039,2.32899735 8.52482312,2.06791758 8.56781575,1.80890987 C8.58828842,1.68458616 8.69474635,1.59341545 8.81758242,1.59341545 L9.1553816,1.59341545 C9.22908325,1.38413722 9.33963571,1.19143548 9.48089719,1.02567054 L9.31302123,0.729365719 C9.25160319,0.62161851 9.27412314,0.482790376 9.37034472,0.404052032 C9.56483516,0.240359157 9.78798736,0.10981927 10.0275177,0.0186485553 C10.144212,-0.0248647404 10.2752371,0.020720617 10.3366551,0.130539887 L10.5045311,0.42684471 C10.7194942,0.387475538 10.9385519,0.387475538 11.153515,0.42684471 L11.3213909,0.130539887 C11.382809,0.020720617 11.5138341,-0.0248647404 11.6305284,0.0186485553 C11.872106,0.10981927 12.0932109,0.240359157 12.2877013,0.404052032 C12.3818757,0.482790376 12.4064429,0.62161851 12.3450248,0.729365719 L12.1771489,1.02567054 C12.3184104,1.19143548 12.4289628,1.38413722 12.5026645,1.59341545 L12.8404636,1.59341545 C12.9632997,1.59341545 13.0697576,1.6825141 13.0902303,1.8068378 C13.1311757,2.05548521 13.1332229,2.31656498 13.0902303,2.57557269 C13.0697576,2.6998964 12.9632997,2.79106711 12.8404636,2.79106711 L12.5026645,2.79106711 C12.4289628,3.00034534 12.3184104,3.19304708 12.1771489,3.35881202 L12.3450248,3.65511684 C12.4064429,3.76286405 12.3839229,3.90169218 12.2877013,3.98043053 C12.0932109,4.1441234 11.8700587,4.27466329 11.6305284,4.365834 C11.5138341,4.4093473 11.382809,4.36376194 11.3213909,4.25394267 L11.153515,3.95763785 C10.9405991,3.99700702 10.7194942,3.99700702 10.5045311,3.95763785 L10.5045311,3.95763785 Z M10.289568,2.73926557 C11.0777661,3.35259583 11.9765166,2.44296075 11.3705254,1.64521699 C10.5823273,1.02981467 9.6835767,1.94152181 10.289568,2.73926557 L10.289568,2.73926557 Z M7.92906819,5.92816853 L8.61899744,6.27627489 C8.82577149,6.39645447 8.91585127,6.65131806 8.83396056,6.87924485 C8.65175373,7.38068378 8.29348186,7.84068148 7.96182448,8.24266145 C7.81032666,8.42707494 7.54827638,8.4726603 7.34150233,8.35248072 L6.7457474,8.00437435 C6.41818456,8.28824681 6.03739274,8.51410153 5.62179738,8.66121791 L5.62179738,9.35743064 C5.62179738,9.5977898 5.45187415,9.80499597 5.21848562,9.84643721 C4.71485774,9.9334638 4.18666265,9.93760792 3.66460936,9.84643721 C3.42917357,9.80499597 3.2551558,9.59986186 3.2551558,9.35743064 L3.2551558,8.66121791 C2.83956044,8.51202947 2.45876863,8.28824681 2.13120578,8.00437435 L1.53545085,8.35040866 C1.33072407,8.47058824 1.06662652,8.42500288 0.915128707,8.24058939 C0.583471323,7.83860942 0.233388529,7.37861172 0.051181695,6.87924485 C-0.030709017,6.65339012 0.0593707662,6.39852653 0.266144814,6.27627489 L0.947884992,5.92816853 C0.868041547,5.49510763 0.868041547,5.04961437 0.947884992,4.61448141 L0.266144814,4.26430298 C0.0593707662,4.1441234 -0.0327562848,3.88925981 0.051181695,3.66340509 C0.233388529,3.16196616 0.583471323,2.70196846 0.915128707,2.29998849 C1.06662652,2.115575 1.3286768,2.06998964 1.53545085,2.19016922 L2.13120578,2.53827558 C2.45876863,2.25440313 2.83956044,2.02854841 3.2551558,1.88143202 L3.2551558,1.18314723 C3.2551558,0.944860136 3.42303176,0.737653966 3.65642029,0.696212732 C4.16004817,0.60918614 4.69029053,0.605042017 5.21234382,0.69414067 C5.44777962,0.735581904 5.62179738,0.940716012 5.62179738,1.18314723 L5.62179738,1.87935996 C6.03739274,2.02854841 6.41818456,2.25233107 6.7457474,2.53620352 L7.34150233,2.18809716 C7.54622911,2.06791758 7.81032666,2.11350294 7.96182448,2.29791643 C8.29348186,2.6998964 8.64151739,3.15989409 8.82372422,3.66133303 C8.90561493,3.88718775 8.82577149,4.14205134 8.61899744,4.26430298 L7.92906819,4.61240935 C8.00891164,5.0475423 8.00891164,5.49303557 7.92906819,5.92816853 Z M5.52148126,6.36537355 C6.7334638,4.76988604 4.9339154,2.9485438 3.35751919,4.17520433 C2.14553666,5.77069184 3.94508505,7.59203407 5.52148126,6.36537355 Z M10.5045311,10.1510303 L10.3366551,10.4473351 C10.2752371,10.5571544 10.144212,10.6027397 10.0275177,10.5592264 C9.78594009,10.4680557 9.56483516,10.3375158 9.37034472,10.173823 C9.2761704,10.0950846 9.25160319,9.95625648 9.31302123,9.84850927 L9.48089719,9.55220444 C9.33963571,9.38643951 9.22908325,9.19373777 9.1553816,8.98445954 L8.81758242,8.98445954 C8.69474635,8.98445954 8.58828842,8.89536088 8.56781575,8.77103718 C8.52687039,8.52238978 8.52482312,8.26131 8.56781575,8.00230229 C8.58828842,7.87797859 8.69474635,7.78680787 8.81758242,7.78680787 L9.1553816,7.78680787 C9.22908325,7.57752964 9.33963571,7.3848279 9.48089719,7.21906297 L9.31302123,6.92275814 C9.25160319,6.81501094 9.27412314,6.6761828 9.37034472,6.59744446 C9.56483516,6.43375158 9.78798736,6.3032117 10.0275177,6.21204098 C10.144212,6.16852769 10.2752371,6.21411304 10.3366551,6.32393231 L10.5045311,6.62023714 C10.7194942,6.58086796 10.9385519,6.58086796 11.153515,6.62023714 L11.3213909,6.32393231 C11.382809,6.21411304 11.5138341,6.16852769 11.6305284,6.21204098 C11.872106,6.3032117 12.0932109,6.43375158 12.2877013,6.59744446 C12.3818757,6.6761828 12.4064429,6.81501094 12.3450248,6.92275814 L12.1771489,7.21906297 C12.3184104,7.3848279 12.4289628,7.57752964 12.5026645,7.78680787 L12.8404636,7.78680787 C12.9632997,7.78680787 13.0697576,7.87590653 13.0902303,8.00023023 C13.1311757,8.24887763 13.1332229,8.50995741 13.0902303,8.76896512 C13.0697576,8.89328882 12.9632997,8.98445954 12.8404636,8.98445954 L12.5026645,8.98445954 C12.4289628,9.19373777 12.3184104,9.38643951 12.1771489,9.55220444 L12.3450248,9.84850927 C12.4064429,9.95625648 12.3839229,10.0950846 12.2877013,10.173823 C12.0932109,10.3375158 11.8700587,10.4680557 11.6305284,10.5592264 C11.5138341,10.6027397 11.382809,10.5571544 11.3213909,10.4473351 L11.153515,10.1510303 C10.9405991,10.1903994 10.7194942,10.1903994 10.5045311,10.1510303 Z M10.289568,8.93058593 C11.0777661,9.5439162 11.9765166,8.63428111 11.3705254,7.83653735 C10.5823273,7.22320709 9.6835767,8.13284218 10.289568,8.93058593 L10.289568,8.93058593 Z" id="Shape"></path>
            </g>
        </g>
    </g>
</svg>