<?xml version="1.0" encoding="UTF-8"?>
<svg width="50px" height="50px" viewBox="0 0 50 50" version="1.1" xmlns="http://www.w3.org/2000/svg" xmlns:xlink="http://www.w3.org/1999/xlink">
    <!-- Generator: Sketch 60.1 (88133) - https://sketch.com -->
    <title>campuses</title>
    <desc>Created with Sketch.</desc>
    <g id="campuses" stroke="none" stroke-width="1" fill="none" fill-rule="evenodd">
        <g id="school" transform="translate(6.000000, 10.000000)" fill="#2196f3" fill-rule="nonzero">
            <path d="M0,13.125 L0,29.0625 C0,29.5804687 0.425125,30 0.95,30 L5.7,30 L5.7,11.25 L1.9,11.25 C0.85084375,11.25 0,12.0896484 0,13.125 Z M21.375,10.3125 L19.95,10.3125 L19.95,7.96875 C19.95,7.70976562 19.7374375,7.5 19.475,7.5 L18.525,7.5 C18.2625625,7.5 18.05,7.70976562 18.05,7.96875 L18.05,11.71875 C18.05,11.9777344 18.2625625,12.1875 18.525,12.1875 L21.375,12.1875 C21.6374375,12.1875 21.85,11.9777344 21.85,11.71875 L21.85,10.78125 C21.85,10.5222656 21.6374375,10.3125 21.375,10.3125 Z M29.5539062,6.56484375 L20.0539063,0.314648437 C19.4156118,-0.104889555 18.5843882,-0.104889555 17.9460938,0.314648437 L8.44609375,6.56484375 C7.91762148,6.91253656 7.6,7.49781434 7.6,8.12460938 L7.6,29.9999949 L15.2,29.9999949 L15.2,21.5625 C15.2,21.0445312 15.625125,20.625 16.15,20.625 L21.85,20.625 C22.374875,20.625 22.8,21.0445312 22.8,21.5625 L22.8,29.9999949 L30.4,29.9999949 L30.4,8.12519531 C30.4,7.49824219 30.0823437,6.91230469 29.5539062,6.56484375 Z M19,15 C16.3768125,15 14.25,12.9011719 14.25,10.3125 C14.25,7.72382812 16.3768125,5.625 19,5.625 C21.6231875,5.625 23.75,7.72382812 23.75,10.3125 C23.75,12.9011719 21.6231875,15 19,15 Z M36.1,11.25 L32.3,11.25 L32.3,30 L37.05,30 C37.574875,30 38,29.5804687 38,29.0625 L38,13.125 C38,12.0896484 37.1491562,11.25 36.1,11.25 Z" id="Shape"></path>
        </g>
    </g>
</svg>