<?xml version="1.0" encoding="UTF-8"?>
<svg width="50px" height="50px" viewBox="0 0 50 50" version="1.1" xmlns="http://www.w3.org/2000/svg" xmlns:xlink="http://www.w3.org/1999/xlink">
    <!-- Generator: Sketch 60.1 (88133) - https://sketch.com -->
    <title>contactus</title>
    <desc>Created with Sketch.</desc>
    <g id="contactus" stroke="none" stroke-width="1" fill="none" fill-rule="evenodd">
        <g id="envelope" transform="translate(6.000000, 10.000000)" fill="#2196f3" fill-rule="nonzero">
            <path d="M37.2800781,9.90625 C37.5695312,9.6640625 38,9.890625 38,10.2734375 L38,26.25 C38,28.3203125 36.4042969,30 34.4375,30 L3.5625,30 C1.59570312,30 0,28.3203125 0,26.25 L0,10.28125 C0,9.890625 0.423046875,9.671875 0.719921875,9.9140625 C2.38242187,11.2734375 4.58671875,13 12.1570312,18.7890625 C13.7230469,19.9921875 16.3652344,22.5234375 19,22.5078125 C21.6496094,22.53125 24.34375,19.9453125 25.8503906,18.7890625 C33.4207031,13 35.6175781,11.265625 37.2800781,9.90625 Z M19,20 C20.721875,20.03125 23.2007813,17.71875 24.4476562,16.765625 C34.2964844,9.2421875 35.0460937,8.5859375 37.3171875,6.7109375 C37.7476562,6.359375 38,5.8125 38,5.234375 L38,3.75 C38,1.6796875 36.4042969,0 34.4375,0 L3.5625,0 C1.59570312,0 0,1.6796875 0,3.75 L0,5.234375 C0,5.8125 0.25234375,6.3515625 0.6828125,6.7109375 C2.95390625,8.578125 3.70351563,9.2421875 13.5523437,16.765625 C14.7992187,17.71875 17.278125,20.03125 19,20 Z" id="Shape"></path>
        </g>
    </g>
</svg>