<?xml version="1.0" encoding="UTF-8"?>
<svg width="50px" height="50px" viewBox="0 0 50 50" version="1.1" xmlns="http://www.w3.org/2000/svg" xmlns:xlink="http://www.w3.org/1999/xlink">
    <!-- Generator: Sketch 60.1 (88133) - https://sketch.com -->
    <title>elearning</title>
    <desc>Created with Sketch.</desc>
    <g id="elearning" stroke="none" stroke-width="1" fill="none" fill-rule="evenodd">
        <g id="001-online-learning" transform="translate(6.000000, 10.000000)" fill="#2196f3">
            <path d="M5.4871005,29.9234694 L31.9715056,29.9234694 C34.9970684,29.9234694 37.4586061,27.3485714 37.4586061,24.1836735 C37.4586061,23.5494898 36.9674496,23.0357143 36.361186,23.0357143 L35.2637659,23.0357143 L35.2637659,1.2244898 C35.2637659,0.590306122 34.7726094,0.0765306122 34.1663458,0.0765306122 L3.2922603,0.0765306122 C2.68599666,0.0765306122 2.1948402,0.590306122 2.1948402,1.2244898 L2.1948402,23.0357143 L1.0974201,23.0357143 C0.491156463,23.0357143 0,23.5494898 0,24.1836735 C0,27.3485714 2.46153767,29.9234694 5.4871005,29.9234694 Z M31.9715056,27.627551 L5.4871005,27.627551 C4.05625979,27.627551 2.83573354,26.6681633 2.38271852,25.3308163 L35.0758876,25.3308163 C34.6228725,26.6681633 33.4023463,27.627551 31.9715056,27.627551 Z M4.3896804,23.0357143 L33.0689257,23.0357143 L33.0689257,2.37244898 L4.3896804,2.37244898 L4.3896804,23.0357143 Z" id="Fill-1"></path>
            <path d="M27.7746785,4.70265306 C27.6743987,4.67632653 25.2856321,4.06653061 22.8529688,4.70265306 C21.2061558,5.13357143 19.5976794,6.12244898 18.729303,6.71714286 C17.8609267,6.12244898 16.2528405,5.13316327 14.6059299,4.70265306 C12.1729739,4.06653061 9.78420742,4.67632653 9.68392761,4.70265306 C9.1955025,4.83020408 8.85252214,5.28938776 8.85252214,5.81632653 L8.85252214,17.2959184 C8.85252214,17.6494898 9.00840457,17.9830612 9.27471185,18.2007143 C9.54111667,18.4183673 9.88819407,18.4953061 10.2159569,18.4095918 C10.235369,18.4043878 12.1973611,17.9188776 14.073608,18.4095918 C16.0196997,18.9185714 18.0514388,20.495102 18.070851,20.5102041 C18.2525838,20.6528571 18.4888461,20.7393878 18.7285227,20.7397959 L18.7300834,20.7397959 C18.972784,20.7393878 19.2082659,20.6513265 19.3877551,20.5102041 C19.4079476,20.4942857 21.4278835,18.9214286 23.3849981,18.4095918 C25.2726582,17.9161224 27.2255782,18.4052041 27.2449904,18.4104082 C27.5722654,18.494898 27.9182698,18.4179592 28.1842844,18.2007143 C28.4502015,17.9830612 28.6060839,17.6494898 28.6060839,17.2959184 L28.6060839,5.81632653 C28.6060839,5.28938776 28.2631036,4.83020408 27.7746785,4.70265306 Z M11.0473623,15.9545918 L11.0473623,6.78571429 C11.7969247,6.69244898 12.9503376,6.63622449 14.073608,6.93 C15.477818,7.29714286 16.9266076,8.22030612 17.6318829,8.71173469 L17.6318829,17.5012245 C16.7771634,17.0009184 15.6999358,16.4684694 14.6056373,16.1822449 C13.460516,15.8828571 12.2225286,15.8338776 11.0473623,15.9545918 Z M26.4112437,15.9545918 C25.4761443,15.8585714 24.1706533,15.837449 22.8529688,16.1822449 C21.7586703,16.4684694 20.6814427,17.0009184 19.8267231,17.5008163 L19.8267231,8.7105102 C20.530145,8.21989796 21.9739597,7.29908163 23.3849981,6.93 C24.5128533,6.635 25.6636324,6.69081633 26.4112437,6.78489796 L26.4112437,15.9545918 Z" id="Fill-2"></path>
        </g>
    </g>
</svg>