<?xml version="1.0" encoding="UTF-8"?>
<svg width="50px" height="50px" viewBox="0 0 50 50" version="1.1" xmlns="http://www.w3.org/2000/svg" xmlns:xlink="http://www.w3.org/1999/xlink">
    <!-- Generator: Sketch 60.1 (88133) - https://sketch.com -->
    <title>epayment</title>
    <desc>Created with Sketch.</desc>
    <defs>
        <polygon id="path-1" points="0.00589147287 0 32.5111111 0 32.5111111 24.0218216 0.00589147287 24.0218216"></polygon>
        <polygon id="path-3" points="0 0 32.5994832 0 32.5994832 17.8195652 0 17.8195652"></polygon>
    </defs>
    <g id="epayment" stroke="none" stroke-width="1" fill="none" fill-rule="evenodd">
        <g id="002-credit-card" transform="translate(6.000000, 10.000000)">
            <g id="Group-3">
                <mask id="mask-2" fill="white">
                    <use xlink:href="#path-1"></use>
                </mask>
                <g id="Clip-2"></g>
                <path d="M32.5111111,3.80434783 L32.5111111,2.48913043 C32.5111111,1.14130435 31.5586563,0 30.3312661,0 L2.1994832,0 C0.972093023,0 0,1.14130435 0,2.48913043 L0,21.6086957 C0,21.6195652 0,21.6304348 0,21.6413043 C0.00981912145,22.9673913 1.00155039,24.0326087 2.1994832,24.0218216 L3.33850129,24.0218216 L3.33850129,8.40217391 C3.33850129,5.84782609 5.22377261,3.80434783 7.53126615,3.80434783 L32.5111111,3.80434783" id="Fill-1" fill="#2196f3" mask="url(#mask-2)"></path>
            </g>
            <path d="M28.4361757,25.5869565 C28.9074935,25.5978261 29.3591731,25.3586957 29.6537468,24.9565217 C29.8403101,24.7065217 30.1152455,24.5652174 30.4098191,24.5652174 C30.6945736,24.5543478 30.9793282,24.6956522 31.1658915,24.9456522 C31.2346253,25.0326087 31.2935401,25.1086957 31.372093,25.173913 C32.0397933,25.7934783 33.0315245,25.6956522 33.5912145,24.9565217 C34.1509044,24.2173913 34.0625323,23.1195652 33.394832,22.5 C32.7271318,21.8804348 31.7354005,21.9782609 31.1757106,22.7173913 C31.126615,22.7826087 31.0775194,22.8369565 31.0284238,22.8804348 C30.6062016,23.2608696 29.9875969,23.1847826 29.6439276,22.7173913 C29.349354,22.3152174 28.8976744,22.076087 28.4263566,22.076087 C27.5426357,22.076087 26.8356589,22.8586957 26.845478,23.8369565 C26.845478,24.8043478 27.5622739,25.5869565 28.4361757,25.5869565" id="Fill-4" fill="#2196f3"></path>
            <path d="M35.6728682,5.97826087 L7.53126615,5.97826087 C6.30387597,5.9673913 5.3121447,7.05434783 5.30232558,8.40217391 L5.30232558,10 L37.9116279,10 L37.9116279,8.40217391 C37.9116279,7.04347826 36.9002584,5.97826087 35.6728682,5.97826087" id="Fill-5" fill="#2196f3"></path>
            <g id="Group-9" transform="translate(5.302326, 12.173913)">
                <mask id="mask-4" fill="white">
                    <use xlink:href="#path-3"></use>
                </mask>
                <g id="Clip-7"></g>
                <polygon id="Fill-6" fill="#2196f3" mask="url(#mask-4)" points="0 2.82608696 32.5994832 2.82608696 32.5994832 0 0 0"></polygon>
                <path d="M23.124031,7.7173913 C23.8310078,7.7173913 24.5183463,7.94565217 25.1074935,8.39130435 C26.3152455,7.48913043 27.8863049,7.48913043 29.0842377,8.39130435 C30.7043928,9.60869565 31.1364341,12.0543478 30.0366925,13.8478261 C28.9369509,15.6413043 26.7276486,16.1195652 25.1074935,14.9021739 C24.5183463,15.3478261 23.8310078,15.576087 23.124031,15.576087 C21.1602067,15.576087 19.5793282,13.8043478 19.5793282,11.6413043 C19.5793282,9.47826087 21.1602067,7.7173913 23.124031,7.7173913 Z M0,15.3369565 C0,16.7065217 0.991731266,17.8152174 2.22894057,17.826087 L30.3607235,17.826087 C31.5979328,17.8152174 32.5896641,16.7065217 32.5994832,15.3369565 L32.5994832,5 L0,5 L0,15.3369565 L0,15.3369565 Z" id="Fill-8" fill="#2196f3" mask="url(#mask-4)"></path>
            </g>
        </g>
    </g>
</svg>