<?xml version="1.0" encoding="UTF-8"?>
<svg width="50px" height="50px" viewBox="0 0 50 50" version="1.1" xmlns="http://www.w3.org/2000/svg" xmlns:xlink="http://www.w3.org/1999/xlink">
    <!-- Generator: Sketch 60.1 (88133) - https://sketch.com -->
    <title>home</title>
    <desc>Created with Sketch.</desc>
    <g id="home" stroke="none" stroke-width="1" fill="none" fill-rule="evenodd">
        <g transform="translate(6.000000, 10.000000)" fill="#2196f3" fill-rule="nonzero" id="Shape" stroke="#2196f3">
            <path d="M18.4983737,7.78526786 L6.37716263,17.9537946 L6.37716263,28.9285714 C6.37716263,29.5203051 6.8481157,30 7.42906574,30 L14.7963322,29.9805804 C15.3752272,29.9776321 15.842983,29.4987996 15.8429758,28.9091518 L15.8429758,22.5 C15.8429758,21.9082663 16.3139288,21.4285714 16.8948789,21.4285714 L21.1024913,21.4285714 C21.6834414,21.4285714 22.1543945,21.9082663 22.1543945,22.5 L22.1543945,28.9044643 C22.1535209,29.1892045 22.2639603,29.4625875 22.4613251,29.6642441 C22.65869,29.8659006 22.926745,29.9792425 23.2062976,29.9792411 L30.5709343,30 C31.1518843,30 31.6228374,29.5203051 31.6228374,28.9285714 L31.6228374,17.9464286 L19.5042561,7.78526786 C19.2107067,7.54425993 18.7919231,7.54425993 18.4983737,7.78526786 Z M37.6449827,14.6966518 L32.1487889,10.0821429 L32.1487889,0.806919643 C32.1487889,0.363119397 31.7955741,0.00334821429 31.3598616,0.00334821429 L27.6782007,0.00334821429 C27.2424882,0.00334821429 26.8892734,0.363119397 26.8892734,0.806919643 L26.8892734,5.66919643 L21.003218,0.736607143 C19.838283,-0.239809499 18.1577724,-0.239809499 16.9928374,0.736607143 L0.351072664,14.6966518 C0.189732205,14.8324798 0.0879995692,15.0280473 0.0682707738,15.2403007 C0.0485419785,15.4525542 0.112434387,15.6640932 0.245882353,15.8283482 L1.92235294,17.9042411 C2.0554399,18.0690721 2.24743388,18.1732096 2.45599091,18.1936861 C2.66454794,18.2141626 2.87253578,18.1492961 3.03408304,18.0133929 L18.4983737,5.03973214 C18.7919231,4.79872422 19.2107067,4.79872422 19.5042561,5.03973214 L34.9692042,18.0133929 C35.1304659,18.1493179 35.3381498,18.2143963 35.5465352,18.1943013 C35.7549206,18.1742063 35.9469241,18.0705853 36.0802768,17.90625 L37.7567474,15.8303571 C37.8900598,15.6651453 37.953219,15.4526226 37.9322421,15.2398398 C37.9112652,15.027057 37.8078827,14.8315678 37.6449827,14.6966518 L37.6449827,14.6966518 Z"></path>
        </g>
    </g>
</svg>