<?xml version="1.0" encoding="UTF-8"?>
<svg width="50px" height="50px" viewBox="0 0 50 50" version="1.1" xmlns="http://www.w3.org/2000/svg" xmlns:xlink="http://www.w3.org/1999/xlink">
    <!-- Generator: Sketch 60.1 (88133) - https://sketch.com -->
    <title>programs</title>
    <desc>Created with Sketch.</desc>
    <g id="programs" stroke="none" stroke-width="1" fill="none" fill-rule="evenodd">
        <g id="th-list" transform="translate(6.000000, 10.000000)" fill="#2196f3" fill-rule="nonzero">
            <path d="M11.0833086,12.3214286 L11.0833086,17.6785714 C11.0833086,18.566183 10.2858281,19.2857143 9.30205859,19.2857143 L1.78125,19.2857143 C0.797480469,19.2857143 0,18.566183 0,17.6785714 L0,12.3214286 C0,11.433817 0.797480469,10.7142857 1.78125,10.7142857 L9.30205859,10.7142857 C10.2858281,10.7142857 11.0833086,11.433817 11.0833086,12.3214286 Z M0,23.0357143 L0,28.3928571 C0,29.2804687 0.797480469,30 1.78125,30 L9.30205859,30 C10.2858281,30 11.0833086,29.2804687 11.0833086,28.3928571 L11.0833086,23.0357143 C11.0833086,22.1481027 10.2858281,21.4285714 9.30205859,21.4285714 L1.78125,21.4285714 C0.797480469,21.4285714 0,22.1481027 0,23.0357143 Z M9.30205859,0 L1.78125,0 C0.797480469,0 0,0.71953125 0,1.60714286 L0,6.96428571 C0,7.85189732 0.797480469,8.57142857 1.78125,8.57142857 L9.30205859,8.57142857 C10.2858281,8.57142857 11.0833086,7.85189732 11.0833086,6.96428571 L11.0833086,1.60714286 C11.0833086,0.71953125 10.2858281,0 9.30205859,0 Z M15.2395586,30 L36.21875,30 C37.2025195,30 38,29.2804687 38,28.3928571 L38,23.0357143 C38,22.1481027 37.2025195,21.4285714 36.21875,21.4285714 L15.2395586,21.4285714 C14.2557891,21.4285714 13.4583086,22.1481027 13.4583086,23.0357143 L13.4583086,28.3928571 C13.4583086,29.2804687 14.2557891,30 15.2395586,30 Z M13.4583086,1.60714286 L13.4583086,6.96428571 C13.4583086,7.85189732 14.2557891,8.57142857 15.2395586,8.57142857 L36.21875,8.57142857 C37.2025195,8.57142857 38,7.85189732 38,6.96428571 L38,1.60714286 C38,0.71953125 37.2025195,0 36.21875,0 L15.2395586,0 C14.2557891,0 13.4583086,0.71953125 13.4583086,1.60714286 Z M15.2395586,19.2857143 L36.21875,19.2857143 C37.2025195,19.2857143 38,18.566183 38,17.6785714 L38,12.3214286 C38,11.433817 37.2025195,10.7142857 36.21875,10.7142857 L15.2395586,10.7142857 C14.2557891,10.7142857 13.4583086,11.433817 13.4583086,12.3214286 L13.4583086,17.6785714 C13.4583086,18.566183 14.2557891,19.2857143 15.2395586,19.2857143 Z" id="Shape"></path>
        </g>
    </g>
</svg>